
nColumns=19
nRows=61
DataType=double
version=3
OpenSimVersion=4.4-2022-10-11-798caa840
endheader
time	ground_force_calcn_r_vx	ground_force_calcn_r_vy	ground_force_calcn_r_vz	ground_force_calcn_r_px	ground_force_calcn_r_py	ground_force_calcn_r_pz	ground_force_calcn_r_mx	ground_force_calcn_r_my	ground_force_calcn_r_mz	ground_force_calcn_l_vx	ground_force_calcn_l_vy	ground_force_calcn_l_vz	ground_force_calcn_l_px	ground_force_calcn_l_py	ground_force_calcn_l_pz	ground_force_calcn_l_mx	ground_force_calcn_l_my	ground_force_calcn_l_mz
1.45	-188.389	330.565	-15.0194	-0.108784	0	-0.426713	-0.399406	0.700836	-0.0318428	-203.108	339.223	14.4263	-0.0782593	0	-0.78446	0.373684	-0.624112	-0.0265419
1.46	-358.089	678.0650000000001	-69.4442	-0.114062	0	-0.424686	-1.37932	2.61183	-0.267491	-346.775	644.659	69.20140000000001	-0.08693049999999999	0	-0.789875	0.978838	-1.81967	-0.195334
1.47	-190.176	554.122	-108.203	-0.125833	0	-0.423106	-1.16946	3.40749	-0.665378	-196.521	576.811	119.635	-0.104448	0	-0.7915180000000001	1.22532	-3.59646	-0.745932
1.48	-131.846	785.559	-99.9306	-0.177489	0	-0.432655	0.553979	-3.30069	0.419879	-106.89	839.208	102.14	-0.15883	0	-0.782878	-0.250306	1.96518	0.239181
1.49	-27.2517	1378.07	-71.80589999999999	-0.215239	0	-0.442538	0.243533	-12.3151	0.641689	10.2693	1309.96	64.9235	-0.192156	0	-0.775235	0.0624981	7.97227	0.395119
1.5	-39.2265	1356.25	-62.7909	-0.215598	0	-0.444502	0.442745	-15.3078	0.708714	-44.1133	1178.46	56.1703	-0.188014	0	-0.774232	-0.365503	9.764200000000001	0.465402
1.51	-204.374	883.861	-73.48699999999999	-0.18508	0	-0.440522	2.38657	-10.3213	0.858143	-204.657	776.465	59.3084	-0.155322	0	-0.777011	-1.7407	6.60419	0.504445
1.52	-243.469	582.124	-76.1442	-0.1468	0	-0.437122	2.09347	-5.0054	0.6547269999999999	-234.096	555.452	56.507	-0.123467	0	-0.77827	-1.58862	3.7694	0.383467
1.53	-193.327	496.844	-62.3612	-0.134699	0	-0.438233	1.74741	-4.49079	0.563659	-189.795	507.777	46.9984	-0.11732	0	-0.776743	-1.52156	4.07078	0.37678
1.54	-157.134	483.604	-42.5954	-0.134521	0	-0.440995	1.97537	-6.0795	0.535476	-155.645	524.235	32.3323	-0.120495	0	-0.774611	-1.77643	5.98326	0.369019
1.55	-156.333	491.975	-33.0921	-0.133092	0	-0.443199	2.26177	-7.1177	0.478764	-141.425	562.054	27.3753	-0.123372	0	-0.773401	-1.85312	7.36471	0.358704
1.56	-150.05	516.395	-35.4382	-0.133922	0	-0.444788	2.22149	-7.64521	0.524662	-124.503	611.431	42.8729	-0.127015	0	-0.773714	-1.4744	7.24076	0.507715
1.57	-118.551	544.109	-39.7533	-0.137872	0	-0.446293	1.81967	-8.35168	0.6101839999999999	-95.4807	660.465	62.4884	-0.13058	0	-0.774153	-0.965639	6.67958	0.631973
1.58	-85.2869	573.388	-40.3018	-0.141669	0	-0.44798	1.3542	-9.104380000000001	0.639921	-73.7894	684.9	70.3236	-0.13018	0	-0.774051	-0.704526	6.53929	0.671436
1.59	-65.85250000000001	590.553	-38.5028	-0.141769	0	-0.449347	1.04999	-9.416079999999999	0.613908	-70.1215	667.317	69.37860000000001	-0.124135	0	-0.773636	-0.678546	6.45743	0.671356
1.6	-60.1009	579.2430000000001	-37.3175	-0.136997	0	-0.449778	0.931325	-8.97597	0.578273	-80.4173	629.96	66.4216	-0.115233	0	-0.772811	-0.778741	6.10037	0.643209
1.61	-62.5147	547.5119999999999	-35.0206	-0.12992	0	-0.450034	0.914342	-8.00793	0.512213	-94.4528	592.972	64.66540000000001	-0.106366	0	-0.771389	-0.831873	5.22248	0.569528
1.62	-63.4286	505.18	-31.3367	-0.122945	0	-0.450574	0.853965	-6.80144	0.421899	-101.356	560.7859999999999	62.4003	-0.0989028	0	-0.769228	-0.791747	4.38058	0.48744
1.63	-60.2633	460.472	-26.7739	-0.117014	0	-0.451428	0.738256	-5.64102	0.327994	-98.7452	537.064	57.8231	-0.09365660000000001	0	-0.766683	-0.769295	4.18411	0.450484
1.64	-56.5043	419.776	-21.9043	-0.11217	0	-0.452297	0.6240289999999999	-4.63597	0.24191	-90.9889	524.0940000000001	52.0586	-0.0902855	0	-0.764405	-0.792508	4.56483	0.453427
1.65	-54.0207	386.873	-18.365	-0.108441	0	-0.452756	0.535636	-3.836	0.182096	-82.6819	521.278	46.7818	-0.0881903	0	-0.762746	-0.825511	5.20453	0.467078
1.66	-52.5856	365.132	-17.7392	-0.105892	0	-0.452616	0.455703	-3.1642	0.153727	-74.5675	524.05	43.2582	-0.0870196	0	-0.761711	-0.836852	5.88128	0.485476
1.67	-49.3113	356.193	-20.5255	-0.104642	0	-0.452086	0.35799	-2.58589	0.149011	-67.06229999999999	528.002	42.1162	-0.0863199	0	-0.761055	-0.802885	6.32136	0.504224
1.68	-42.817	359.236	-26.0224	-0.104456	0	-0.451239	0.252108	-2.1152	0.153221	-61.7562	533.002	42.8461	-0.08577410000000001	0	-0.760899	-0.756931	6.53288	0.525155
1.69	-34.3117	370.589	-32.1117	-0.105143	0	-0.450243	0.167457	-1.80864	0.15672	-58.1504	539.048	45.5551	-0.0852574	0	-0.7611560000000001	-0.694748	6.44025	0.5442669999999999
1.7	-26.2437	384.054	-35.5895	-0.106117	0	-0.449594	0.123556	-1.80813	0.167556	-54.9418	545.205	49.7246	-0.0846609	0	-0.761356	-0.610548	6.05866	0.552571
1.71	-19.9138	393.648	-35.0776	-0.106891	0	-0.449365	0.107362	-2.12229	0.189116	-53.1488	549.99	53.5214	-0.08406909999999999	0	-0.761486	-0.544453	5.63407	0.54827
1.72	-16.126	395.643	-31.5407	-0.107105	0	-0.449377	0.106407	-2.61064	0.20812	-53.6981	551.078	55.5058	-0.0830835	0	-0.761233	-0.514528	5.28036	0.531849
1.73	-14.4052	390.208	-27.0114	-0.106773	0	-0.449637	0.110504	-2.99332	0.207207	-55.478	548.515	55.8032	-0.08179309999999999	0	-0.760582	-0.518553	5.12697	0.521593
1.74	-13.2202	379.816	-23.2036	-0.105904	0	-0.44983	0.107891	-3.09969	0.189365	-56.9617	544.793	54.7048	-0.0802916	0	-0.759848	-0.543956	5.20251	0.522404
1.75	-12.2398	367.877	-20.8915	-0.104738	0	-0.450156	0.09730220000000001	-2.9245	0.166081	-57.262	542.917	52.4201	-0.0793939	0	-0.758989	-0.570381	5.40794	0.522151
1.76	-11.8663	360.549	-20.9202	-0.103736	0	-0.450271	0.0834662	-2.53606	0.14715	-54.8861	544.705	49.6969	-0.079245	0	-0.758082	-0.573076	5.68736	0.518894
1.77	-10.8313	359.94	-23.1704	-0.103292	0	-0.450079	0.0620962	-2.06354	0.132837	-49.548	549.585	48.1287	-0.07935780000000001	0	-0.757312	-0.536807	5.95425	0.521429
1.78	-8.116860000000001	362.788	-26.934	-0.103216	0	-0.449695	0.0358182	-1.60091	0.118855	-42.2134	554.174	47.9487	-0.0795873	0	-0.756576	-0.460248	6.0421	0.522779
1.79	-3.59425	366.751	-31.5117	-0.103498	0	-0.449246	0.011631	-1.1868	0.101971	-33.425	553.784	48.4028	-0.07981679999999999	0	-0.755809	-0.36136	5.98699	0.523285
1.8	1.68269	372.289	-36.5688	-0.103944	0	-0.448771	-0.00368778	-0.815908	0.0801441	-24.58	546.496	48.8155	-0.079718	0	-0.755072	-0.261386	5.8115	0.519109
1.81	5.63526	381.044	-42.1924	-0.104762	0	-0.448427	-0.00796298	-0.53844	0.0596206	-18.977	533.3390000000001	48.9219	-0.079273	0	-0.754277	-0.198095	5.56737	0.5106810000000001
1.82	7.94697	393.03	-47.9042	-0.105888	0	-0.4481	-0.00735304	-0.363656	0.044324	-17.803	518.5650000000001	47.7857	-0.0787921	0	-0.753605	-0.185292	5.39718	0.497349
1.83	10.1705	407.704	-53.6959	-0.107617	0	-0.447881	-0.00871074	-0.349187	0.045989	-19.4203	506.287	45.2014	-0.07837239999999999	0	-0.753136	-0.20655	5.38477	0.480753
1.84	12.1093	426.466	-59.8786	-0.109894	0	-0.447924	-0.0149865	-0.527796	0.0741058	-21.825	499.295	42.7872	-0.0780159	0	-0.752831	-0.240464	5.50113	0.47142
1.85	12.6175	451.3	-65.2777	-0.112377	0	-0.448125	-0.0268836	-0.961569	0.139085	-24.1562	499.66	43.0469	-0.0777738	0	-0.752851	-0.267165	5.52619	0.476094
1.86	12.1309	480.578	-68.3888	-0.114464	0	-0.44838	-0.0424042	-1.67988	0.239056	-26.2024	507.009	47.1406	-0.0776592	0	-0.753049	-0.277943	5.37811	0.500045
1.87	10.5097	508.495	-69.1983	-0.115717	0	-0.448959	-0.0516364	-2.49835	0.339987	-28.59	519.4349999999999	52.5702	-0.0776747	0	-0.753233	-0.2853	5.18345	0.524599
1.88	7.40183	527.311	-68.8184	-0.116254	0	-0.449536	-0.0450881	-3.21211	0.419206	-30.9778	533.978	56.426	-0.077679	0	-0.753339	-0.298751	5.1497	0.544175
1.89	3.26534	536.062	-68.26739999999999	-0.116323	0	-0.450021	-0.022392	-3.67603	0.468142	-32.3084	548.223	58.3238	-0.07769	0	-0.753294	-0.312667	5.30547	0.564433
1.9	-0.880607	539.694	-67.9006	-0.116187	0	-0.450428	0.00648173	-3.97243	0.499784	-32.6241	562.294	59.8704	-0.0776741	0	-0.753344	-0.320548	5.52482	0.588257
1.91	-4.36066	543.152	-67.423	-0.116128	0	-0.450689	0.0337042	-4.1981	0.521122	-33.9998	575.955	62.5336	-0.0774456	0	-0.7534459999999999	-0.328745	5.56893	0.60464
1.92	-6.69619	551.379	-66.151	-0.116344	0	-0.450908	0.0548771	-4.5187	0.542125	-36.922	589.908	65.9769	-0.077137	0	-0.753539	-0.343177	5.48298	0.613231
1.93	-8.449949999999999	567.076	-63.7818	-0.11682	0	-0.451283	0.0747582	-5.01702	0.564289	-41.2218	602.92	68.8886	-0.0768687	0	-0.753742	-0.367621	5.37691	0.614356
1.94	-10.624	588.2089999999999	-61.316	-0.11732	0	-0.451607	0.09923410000000001	-5.49418	0.572724	-46.3233	612.896	70.26139999999999	-0.07660019999999999	0	-0.753996	-0.39587	5.2377	0.600441
1.95	-14.7053	610.601	-60.0134	-0.117607	0	-0.451733	0.138887	-5.7669	0.566805	-52.6479	620.155	69.8532	-0.076084	0	-0.754242	-0.428804	5.05102	0.5689380000000001
1.96	-22.5123	627.652	-60.5413	-0.117418	0	-0.451523	0.206935	-5.76942	0.556499	-60.2664	625.145	67.75660000000001	-0.0756101	0	-0.754532	-0.470701	4.88259	0.529202
1.97	-33.3837	637.478	-62.3017	-0.116844	0	-0.451135	0.291028	-5.55731	0.5431240000000001	-68.7324	628.179	64.15260000000001	-0.0753229	0	-0.75462	-0.517133	4.72633	0.482675
1.98	-46.4378	641.8819999999999	-63.2366	-0.116033	0	-0.450654	0.383558	-5.30169	0.522309	-76.776	629.342	59.52	-0.0749993	0	-0.754748	-0.5571430000000001	4.56697	0.431921
1.99	-60.4397	640.5549999999999	-62.3472	-0.115095	0	-0.450259	0.477793	-5.06377	0.492872	-83.9644	628.549	54.8156	-0.074596	0	-0.7551	-0.582961	4.36399	0.380582
2	-73.9474	633.164	-60.5747	-0.114052	0	-0.449784	0.558106	-4.7787	0.457177	-90.5895	625.548	50.9019	-0.07423	0	-0.755647	-0.595472	4.11192	0.334593
2.01	-84.9046	618.533	-58.2091	-0.11289	0	-0.449224	0.59573	-4.33992	0.408423	-95.5976	617.008	48.4007	-0.0737348	0	-0.756338	-0.57819	3.73176	0.292735
2.02	-90.0022	593.397	-55.4906	-0.111623	0	-0.448217	0.559079	-3.68609	0.344698	-98.3407	597.984	47.1043	-0.0731108	0	-0.757343	-0.521227	3.16944	0.249663
2.03	-86.7608	550.862	-52.9581	-0.109946	0	-0.446736	0.446667	-2.83598	0.272642	-98.5074	563.447	46.2345	-0.0720344	0	-0.758665	-0.426658	2.44042	0.200252
2.04	-73.2911	481.033	-48.8162	-0.107322	0	-0.44471	0.299738	-1.96728	0.199643	-94.7296	510.028	43.866	-0.0702429	0	-0.760415	-0.319707	1.72131	0.148045
2.05	-44.9629	369.794	-38.4694	-0.103566	0	-0.442113	0.165867	-1.36416	0.141913	-83.1096	434.694	36.9889	-0.0674727	0	-0.762479	-0.245026	1.28158	0.109052
